<svg xmlns="http://www.w3.org/2000/svg" viewBox="29.362 79.698 317.953 343.96">
  <rect x="64.598" y="144.295" width="243.289" height="234.899" style="fill: rgb(50, 16, 75);"/>
  <rect x="46.141" y="161.074" width="243.289" height="234.899" style="fill: rgb(92, 24, 103);"/>
  <path d="M 161.725 250.839 L 153.795 250.839 L 153.795 249.119 L 156.025 248.729 L 156.025 233.049 L 153.795 232.669 L 153.795 230.929 L 156.025 230.929 L 161.585 230.929 C 163.345 230.929 164.878 231.349 166.185 232.189 C 167.492 233.029 168.512 234.182 169.245 235.649 C 169.972 237.116 170.335 238.792 170.335 240.679 L 170.335 241.109 C 170.335 242.949 169.985 244.606 169.285 246.079 C 168.578 247.546 167.582 248.706 166.295 249.559 C 165.008 250.412 163.485 250.839 161.725 250.839 Z M 158.715 233.049 L 158.715 248.729 L 161.585 248.729 C 162.845 248.729 163.925 248.386 164.825 247.699 C 165.725 247.012 166.422 246.092 166.915 244.939 C 167.402 243.786 167.645 242.509 167.645 241.109 L 167.645 240.649 C 167.645 239.202 167.402 237.906 166.915 236.759 C 166.422 235.619 165.725 234.716 164.825 234.049 C 163.925 233.382 162.845 233.049 161.585 233.049 L 158.715 233.049 ZM 187.486 250.839 L 172.326 250.839 L 172.326 249.119 L 174.556 248.729 L 174.556 233.049 L 172.326 232.669 L 172.326 230.929 L 187.066 230.929 L 187.066 235.719 L 184.906 235.719 L 184.596 233.009 L 177.246 233.009 L 177.246 239.489 L 184.586 239.489 L 184.586 241.609 L 177.246 241.609 L 177.246 248.819 L 185.036 248.819 L 185.336 246.069 L 187.486 246.069 L 187.486 250.839 ZM 200.524 250.839 L 198.214 250.839 L 191.534 232.889 L 189.954 232.669 L 189.954 230.929 L 196.244 230.929 L 196.244 232.669 L 194.424 232.959 L 198.884 245.619 L 199.344 247.189 L 199.424 247.189 L 199.924 245.619 L 204.544 232.939 L 202.514 232.669 L 202.514 230.929 L 208.794 230.929 L 208.794 232.669 L 207.194 232.889 L 200.524 250.839 Z" transform="matrix(1.4958479404449463, 0, 0, 1.6651860475540161, -147.01077270507812, -169.85452270507812)" style="white-space: pre;"/>
  <path d="M 162.785 279.129 C 160.792 279.129 159.128 278.689 157.795 277.809 C 156.455 276.936 155.452 275.739 154.785 274.219 C 154.112 272.699 153.775 270.972 153.775 269.039 L 153.775 268.749 C 153.775 266.796 154.128 265.062 154.835 263.549 C 155.535 262.029 156.542 260.832 157.855 259.959 C 159.168 259.086 160.735 258.649 162.555 258.649 C 163.842 258.649 165.018 258.849 166.085 259.249 C 167.152 259.649 168.035 260.159 168.735 260.779 L 168.735 265.069 L 166.585 265.069 L 166.305 261.929 C 166.012 261.702 165.675 261.509 165.295 261.349 C 164.915 261.196 164.495 261.079 164.035 260.999 C 163.575 260.919 163.078 260.879 162.545 260.879 C 161.238 260.879 160.135 261.212 159.235 261.879 C 158.335 262.546 157.652 263.469 157.185 264.649 C 156.718 265.822 156.485 267.179 156.485 268.719 L 156.485 269.039 C 156.485 270.706 156.735 272.129 157.235 273.309 C 157.728 274.489 158.452 275.389 159.405 276.009 C 160.358 276.629 161.518 276.939 162.885 276.939 C 163.525 276.939 164.148 276.862 164.755 276.709 C 165.368 276.549 165.875 276.349 166.275 276.109 L 166.575 273.329 L 168.685 273.329 L 168.685 277.649 C 167.938 278.116 167.045 278.479 166.005 278.739 C 164.965 278.999 163.892 279.129 162.785 279.129 ZM 178.444 278.839 L 171.294 278.839 L 171.294 277.119 L 173.524 276.729 L 173.524 266.169 L 171.294 265.779 L 171.294 264.049 L 175.934 264.049 L 176.164 265.929 L 176.194 266.189 C 176.614 265.436 177.131 264.846 177.744 264.419 C 178.358 263.986 179.061 263.769 179.854 263.769 C 180.141 263.769 180.431 263.796 180.724 263.849 C 181.024 263.896 181.238 263.942 181.364 263.989 L 181.004 266.489 L 179.134 266.379 C 178.421 266.339 177.824 266.502 177.344 266.869 C 176.858 267.236 176.484 267.729 176.224 268.349 L 176.224 276.729 L 178.444 277.119 L 178.444 278.839 ZM 190.055 278.839 L 182.905 278.839 L 182.905 277.119 L 185.125 276.729 L 185.125 266.169 L 182.905 265.779 L 182.905 264.049 L 187.825 264.049 L 187.825 276.729 L 190.055 277.119 L 190.055 278.839 Z M 187.825 260.399 L 184.995 260.399 L 184.995 257.509 L 187.825 257.509 L 187.825 260.399 ZM 197.895 279.129 C 196.902 279.129 195.972 279.029 195.105 278.829 C 194.239 278.629 193.319 278.319 192.345 277.899 L 192.315 274.379 L 194.355 274.379 L 194.855 276.499 C 195.369 276.712 195.865 276.866 196.345 276.959 C 196.825 277.052 197.342 277.099 197.895 277.099 C 198.989 277.099 199.772 276.889 200.245 276.469 C 200.719 276.056 200.955 275.539 200.955 274.919 C 200.955 274.332 200.715 273.836 200.235 273.429 C 199.762 273.022 198.895 272.679 197.635 272.399 C 195.849 271.992 194.535 271.442 193.695 270.749 C 192.849 270.062 192.425 269.146 192.425 267.999 C 192.425 267.199 192.659 266.479 193.125 265.839 C 193.592 265.206 194.239 264.702 195.065 264.329 C 195.892 263.956 196.859 263.769 197.965 263.769 C 199.085 263.769 200.045 263.899 200.845 264.159 C 201.639 264.412 202.332 264.752 202.925 265.179 L 203.065 268.559 L 201.035 268.559 L 200.605 266.589 C 200.285 266.349 199.905 266.166 199.465 266.039 C 199.032 265.912 198.532 265.849 197.965 265.849 C 197.125 265.849 196.442 266.046 195.915 266.439 C 195.395 266.832 195.135 267.326 195.135 267.919 C 195.135 268.266 195.209 268.566 195.355 268.819 C 195.509 269.072 195.799 269.302 196.225 269.509 C 196.652 269.716 197.282 269.919 198.115 270.119 C 200.175 270.599 201.612 271.212 202.425 271.959 C 203.245 272.706 203.655 273.626 203.655 274.719 C 203.655 275.972 203.192 277.019 202.265 277.859 C 201.339 278.706 199.882 279.129 197.895 279.129 ZM 211.092 279.069 C 209.999 279.069 209.132 278.749 208.492 278.109 C 207.852 277.462 207.532 276.436 207.532 275.029 L 207.532 266.039 L 205.192 266.039 L 205.192 264.049 L 207.532 264.049 L 207.532 260.479 L 210.222 260.479 L 210.222 264.049 L 213.432 264.049 L 213.432 266.039 L 210.222 266.039 L 210.222 275.029 C 210.222 275.736 210.362 276.259 210.642 276.599 C 210.929 276.932 211.309 277.099 211.782 277.099 C 212.102 277.099 212.455 277.069 212.842 277.009 C 213.235 276.956 213.542 276.906 213.762 276.859 L 214.132 278.619 C 213.739 278.739 213.259 278.846 212.692 278.939 C 212.119 279.026 211.585 279.069 211.092 279.069 ZM 222.265 279.129 C 220.898 279.129 219.718 278.806 218.725 278.159 C 217.738 277.519 216.975 276.632 216.435 275.499 C 215.901 274.366 215.635 273.069 215.635 271.609 L 215.635 271.309 C 215.635 269.849 215.901 268.552 216.435 267.419 C 216.975 266.279 217.738 265.386 218.725 264.739 C 219.718 264.092 220.888 263.769 222.235 263.769 C 223.601 263.769 224.778 264.092 225.765 264.739 C 226.758 265.386 227.521 266.276 228.055 267.409 C 228.595 268.542 228.865 269.842 228.865 271.309 L 228.865 271.609 C 228.865 273.076 228.595 274.376 228.055 275.509 C 227.521 276.642 226.761 277.529 225.775 278.169 C 224.788 278.809 223.618 279.129 222.265 279.129 Z M 222.265 277.019 C 223.118 277.019 223.835 276.786 224.415 276.319 C 224.995 275.846 225.431 275.202 225.725 274.389 C 226.025 273.576 226.175 272.649 226.175 271.609 L 226.175 271.309 C 226.175 270.269 226.025 269.339 225.725 268.519 C 225.431 267.706 224.991 267.066 224.405 266.599 C 223.825 266.126 223.101 265.889 222.235 265.889 C 221.375 265.889 220.655 266.126 220.075 266.599 C 219.488 267.066 219.051 267.706 218.765 268.519 C 218.471 269.339 218.325 270.269 218.325 271.309 L 218.325 271.609 C 218.325 272.649 218.471 273.576 218.765 274.389 C 219.051 275.202 219.491 275.846 220.085 276.319 C 220.671 276.786 221.398 277.019 222.265 277.019 ZM 238.345 278.839 L 230.885 278.839 L 230.885 277.119 L 233.115 276.729 L 233.115 266.039 L 230.805 266.039 L 230.805 264.049 L 233.115 264.049 L 233.115 262.169 C 233.115 260.596 233.525 259.379 234.345 258.519 C 235.172 257.652 236.325 257.219 237.805 257.219 C 238.112 257.219 238.445 257.246 238.805 257.299 C 239.165 257.352 239.535 257.422 239.915 257.509 L 239.595 259.559 C 239.429 259.526 239.205 259.496 238.925 259.469 C 238.652 259.442 238.392 259.429 238.145 259.429 C 237.352 259.429 236.762 259.662 236.375 260.129 C 235.995 260.596 235.805 261.276 235.805 262.169 L 235.805 264.049 L 239.035 264.049 L 239.035 266.039 L 235.805 266.039 L 235.805 276.729 L 238.345 277.119 L 238.345 278.839 ZM 247.447 279.129 C 246.08 279.129 244.89 278.816 243.877 278.189 C 242.87 277.562 242.09 276.696 241.537 275.589 C 240.983 274.476 240.707 273.189 240.707 271.729 L 240.707 271.129 C 240.707 269.722 240.997 268.466 241.577 267.359 C 242.157 266.252 242.927 265.379 243.887 264.739 C 244.847 264.092 245.897 263.769 247.037 263.769 C 248.37 263.769 249.483 264.042 250.377 264.589 C 251.277 265.136 251.953 265.906 252.407 266.899 C 252.867 267.886 253.097 269.049 253.097 270.389 L 253.097 272.069 L 243.497 272.069 L 243.457 272.139 C 243.477 273.086 243.643 273.926 243.957 274.659 C 244.27 275.392 244.723 275.969 245.317 276.389 C 245.91 276.809 246.62 277.019 247.447 277.019 C 248.36 277.019 249.16 276.889 249.847 276.629 C 250.533 276.369 251.13 276.012 251.637 275.559 L 252.687 277.309 C 252.16 277.816 251.46 278.246 250.587 278.599 C 249.713 278.952 248.667 279.129 247.447 279.129 Z M 243.557 269.899 L 243.577 269.969 L 250.407 269.969 L 250.407 269.609 C 250.407 268.902 250.28 268.266 250.027 267.699 C 249.773 267.139 249.4 266.699 248.907 266.379 C 248.407 266.052 247.783 265.889 247.037 265.889 C 246.437 265.889 245.89 266.066 245.397 266.419 C 244.903 266.772 244.497 267.249 244.177 267.849 C 243.863 268.449 243.657 269.132 243.557 269.899 ZM 262.299 278.839 L 255.149 278.839 L 255.149 277.119 L 257.379 276.729 L 257.379 266.169 L 255.149 265.779 L 255.149 264.049 L 259.789 264.049 L 260.019 265.929 L 260.049 266.189 C 260.469 265.436 260.986 264.846 261.599 264.419 C 262.212 263.986 262.916 263.769 263.709 263.769 C 263.996 263.769 264.286 263.796 264.579 263.849 C 264.879 263.896 265.092 263.942 265.219 263.989 L 264.859 266.489 L 262.989 266.379 C 262.276 266.339 261.679 266.502 261.199 266.869 C 260.712 267.236 260.339 267.729 260.079 268.349 L 260.079 276.729 L 262.299 277.119 L 262.299 278.839 Z" transform="matrix(1.4958479404449463, 0, 0, 1.6651860475540161, -147.01077270507812, -169.85452270507812)" style="white-space: pre;"/>
  <path d="M 159.565 307.129 C 158.458 307.129 157.458 306.909 156.565 306.469 C 155.665 306.029 154.945 305.369 154.405 304.489 C 153.858 303.602 153.558 302.496 153.505 301.169 L 153.535 301.079 L 156.115 301.079 C 156.155 302.419 156.462 303.406 157.035 304.039 C 157.615 304.666 158.445 304.979 159.525 304.979 C 160.278 304.979 160.898 304.819 161.385 304.499 C 161.865 304.172 162.222 303.726 162.455 303.159 C 162.688 302.586 162.805 301.929 162.805 301.189 L 162.805 289.049 L 160.145 288.699 L 160.145 286.929 L 167.725 286.929 L 167.725 288.669 L 165.495 289.049 L 165.495 301.189 C 165.495 302.376 165.268 303.416 164.815 304.309 C 164.368 305.202 163.705 305.896 162.825 306.389 C 161.945 306.882 160.858 307.129 159.565 307.129 ZM 174.461 307.129 C 172.921 307.129 171.747 306.752 170.941 305.999 C 170.141 305.246 169.741 304.186 169.741 302.819 C 169.741 301.879 169.997 301.062 170.511 300.369 C 171.031 299.669 171.777 299.126 172.751 298.739 C 173.724 298.352 174.891 298.159 176.251 298.159 L 178.891 298.159 L 178.891 296.709 C 178.891 295.816 178.617 295.122 178.071 294.629 C 177.531 294.136 176.767 293.889 175.781 293.889 C 175.161 293.889 174.624 293.966 174.171 294.119 C 173.717 294.266 173.304 294.472 172.931 294.739 L 172.641 296.799 L 170.561 296.799 L 170.561 293.409 C 171.227 292.876 172.001 292.469 172.881 292.189 C 173.767 291.909 174.747 291.769 175.821 291.769 C 177.621 291.769 179.031 292.199 180.051 293.059 C 181.071 293.912 181.581 295.139 181.581 296.739 L 181.581 303.859 C 181.581 304.052 181.584 304.239 181.591 304.419 C 181.591 304.599 181.601 304.782 181.621 304.969 L 183.061 305.119 L 183.061 306.839 L 179.191 306.839 C 179.104 306.439 179.041 306.079 179.001 305.759 C 178.954 305.439 178.921 305.119 178.901 304.799 C 178.381 305.466 177.731 306.019 176.951 306.459 C 176.171 306.906 175.341 307.129 174.461 307.129 Z M 174.851 304.869 C 175.744 304.869 176.561 304.656 177.301 304.229 C 178.041 303.802 178.571 303.286 178.891 302.679 L 178.891 299.999 L 176.151 299.999 C 174.911 299.999 173.981 300.296 173.361 300.889 C 172.741 301.482 172.431 302.146 172.431 302.879 C 172.431 303.526 172.634 304.019 173.041 304.359 C 173.441 304.699 174.044 304.869 174.851 304.869 ZM 192.201 306.839 L 185.051 306.839 L 185.051 305.119 L 187.271 304.729 L 187.271 294.169 L 185.051 293.779 L 185.051 292.049 L 189.971 292.049 L 189.971 304.729 L 192.201 305.119 L 192.201 306.839 Z M 189.971 288.399 L 187.141 288.399 L 187.141 285.509 L 189.971 285.509 L 189.971 288.399 ZM 201.201 306.839 L 194.051 306.839 L 194.051 305.119 L 196.281 304.729 L 196.281 294.169 L 194.051 293.779 L 194.051 292.049 L 198.701 292.049 L 198.881 293.969 C 199.354 293.269 199.964 292.729 200.711 292.349 C 201.457 291.962 202.324 291.769 203.311 291.769 C 204.291 291.769 205.134 291.999 205.841 292.459 C 206.547 292.912 207.081 293.596 207.441 294.509 C 207.901 293.669 208.514 293.002 209.281 292.509 C 210.047 292.016 210.941 291.769 211.961 291.769 C 213.474 291.769 214.667 292.289 215.541 293.329 C 216.421 294.362 216.861 295.916 216.861 297.989 L 216.861 304.729 L 219.081 305.119 L 219.081 306.839 L 211.921 306.839 L 211.921 305.119 L 214.151 304.729 L 214.151 297.969 C 214.151 296.509 213.901 295.476 213.401 294.869 C 212.901 294.262 212.157 293.959 211.171 293.959 C 210.231 293.959 209.477 294.289 208.911 294.949 C 208.337 295.609 208.007 296.442 207.921 297.449 L 207.921 304.729 L 210.141 305.119 L 210.141 306.839 L 202.991 306.839 L 202.991 305.119 L 205.221 304.729 L 205.221 297.969 C 205.221 296.582 204.964 295.566 204.451 294.919 C 203.937 294.279 203.191 293.959 202.211 293.959 C 201.391 293.959 200.717 294.129 200.191 294.469 C 199.664 294.802 199.257 295.276 198.971 295.889 L 198.971 304.729 L 201.201 305.119 L 201.201 306.839 ZM 227.604 307.129 C 226.237 307.129 225.047 306.816 224.034 306.189 C 223.027 305.562 222.247 304.696 221.694 303.589 C 221.14 302.476 220.864 301.189 220.864 299.729 L 220.864 299.129 C 220.864 297.722 221.154 296.466 221.734 295.359 C 222.314 294.252 223.084 293.379 224.044 292.739 C 225.004 292.092 226.054 291.769 227.194 291.769 C 228.527 291.769 229.64 292.042 230.534 292.589 C 231.434 293.136 232.11 293.906 232.564 294.899 C 233.024 295.886 233.254 297.049 233.254 298.389 L 233.254 300.069 L 223.654 300.069 L 223.614 300.139 C 223.634 301.086 223.8 301.926 224.114 302.659 C 224.427 303.392 224.88 303.969 225.474 304.389 C 226.067 304.809 226.777 305.019 227.604 305.019 C 228.517 305.019 229.317 304.889 230.004 304.629 C 230.69 304.369 231.287 304.012 231.794 303.559 L 232.844 305.309 C 232.317 305.816 231.617 306.246 230.744 306.599 C 229.87 306.952 228.824 307.129 227.604 307.129 Z M 223.714 297.899 L 223.734 297.969 L 230.564 297.969 L 230.564 297.609 C 230.564 296.902 230.437 296.266 230.184 295.699 C 229.93 295.139 229.557 294.699 229.064 294.379 C 228.564 294.052 227.94 293.889 227.194 293.889 C 226.594 293.889 226.047 294.066 225.554 294.419 C 225.06 294.772 224.654 295.249 224.334 295.849 C 224.02 296.449 223.814 297.132 223.714 297.899 ZM 247.456 306.839 L 235.526 306.839 L 235.526 304.949 L 243.586 294.129 L 238.076 294.129 L 237.726 296.609 L 235.706 296.609 L 235.706 292.049 L 246.916 292.049 L 246.916 293.879 L 238.786 304.789 L 245.086 304.789 L 245.446 302.289 L 247.456 302.289 L 247.456 306.839 Z" transform="matrix(1.4958479404449463, 0, 0, 1.6651860475540161, -147.01077270507812, -169.85452270507812)" style="white-space: pre;"/>
</svg>